<svg width="29" height="28" viewBox="0 0 29 28" fill="none" xmlns="http://www.w3.org/2000/svg">
<g id="Vector">
<path id="Vector_2" fill-rule="evenodd" clip-rule="evenodd" d="M14.1669 0.259766C6.45568 0.259766 0.209961 6.50549 0.209961 14.2167C0.209961 20.3926 4.20513 25.609 9.75301 27.4583C10.4509 27.5804 10.7125 27.1617 10.7125 26.7954C10.7125 26.4639 10.6951 25.3648 10.6951 24.1959C7.18842 24.8414 6.28122 23.341 6.00208 22.5559C5.84507 22.1547 5.16467 20.916 4.5715 20.5845C4.08301 20.3228 3.38516 19.6773 4.55405 19.6599C5.65316 19.6424 6.43824 20.6718 6.69993 21.0905C7.95605 23.2015 9.96236 22.6083 10.7649 22.2419C10.887 21.3347 11.2534 20.7241 11.6546 20.3752C8.54922 20.0263 5.30424 18.8225 5.30424 13.4839C5.30424 11.9661 5.84507 10.71 6.73482 9.73303C6.59525 9.3841 6.10676 7.95352 6.87439 6.03444C6.87439 6.03444 8.04328 5.66807 10.7125 7.46503C11.8291 7.151 13.0154 6.99398 14.2018 6.99398C15.3881 6.99398 16.5745 7.151 17.691 7.46503C20.3603 5.65063 21.5292 6.03444 21.5292 6.03444C22.2968 7.95352 21.8083 9.3841 21.6687 9.73303C22.5585 10.71 23.0993 11.9487 23.0993 13.4839C23.0993 18.8399 19.8369 20.0263 16.7315 20.3752C17.2374 20.8113 17.6736 21.6488 17.6736 22.9572C17.6736 24.8239 17.6561 26.3243 17.6561 26.7954C17.6561 27.1617 17.9178 27.5979 18.6157 27.4583C24.1286 25.609 28.1238 20.3752 28.1238 14.2167C28.1238 6.50549 21.8781 0.259766 14.1669 0.259766Z" fill="#4F4F4F"/>
</g>
</svg>
